<svg width="98" height="98" viewBox="0 0 98 98" fill="none" xmlns="http://www.w3.org/2000/svg">
<g clip-path="url(#clip0_125_31)">
<path d="M23.205 49V48.216L44.275 15.435L45.304 17.199L28.105 17.983V15.19H49.028V15.974L28.007 48.706L26.978 46.942L44.52 46.109V49H23.205ZM42.707 49V46.697L48.881 40.18H49.665L49.175 49H42.707ZM24.626 23.177L23.744 14.798H24.528L31.388 15.19L30.8 16.66L25.41 23.177H24.626Z" fill="#212121"/>
<path d="M55.306 64.784C51.8107 64.784 48.7727 64.098 46.192 62.726C43.644 61.3213 41.6677 59.345 40.263 56.797C38.891 54.2163 38.205 51.1783 38.205 47.683C38.205 45.135 38.646 42.7503 39.528 40.529C40.41 38.3077 41.635 36.364 43.203 34.698C44.771 33.032 46.584 31.7417 48.642 30.827C50.7327 29.8797 52.9867 29.406 55.404 29.406C56.972 29.406 58.5563 29.553 60.157 29.847C61.7577 30.1083 63.244 30.484 64.616 30.974C66.0207 31.464 67.164 32.0357 68.046 32.689L64.567 38.226H63.783L58.295 30.925H62.95L63.195 35.188C62.1823 34.1427 61.0227 33.3913 59.716 32.934C58.4093 32.444 56.8413 32.199 55.012 32.199C52.7253 32.199 50.7 32.8197 48.936 34.061C47.2047 35.2697 45.8327 36.9683 44.82 39.157C43.84 41.313 43.35 43.812 43.35 46.654C43.35 49.6267 43.8563 52.2727 44.869 54.592C45.9143 56.8787 47.3517 58.6753 49.181 59.982C51.0103 61.256 53.1173 61.893 55.502 61.893C58.5073 61.893 60.8103 61.2887 62.411 60.08C64.0117 58.8387 64.812 57.091 64.812 54.837L66.527 55.817C66.0697 58.7897 64.91 61.0273 63.048 62.53C61.186 64.0327 58.6053 64.784 55.306 64.784ZM67.703 64.784L63.489 61.109V51.652L59.128 48.516V47.732H71.574V48.516L68.193 51.407V64.784H67.703Z" fill="#212121"/>
<path d="M13.304 80V79.696C13.512 79.6907 13.6773 79.6747 13.8 79.648C13.928 79.6213 14.024 79.576 14.088 79.512C14.1573 79.448 14.2027 79.3573 14.224 79.24C14.2507 79.1227 14.264 78.9707 14.264 78.784V75.056C14.264 74.8693 14.2533 74.72 14.232 74.608C14.216 74.4907 14.1787 74.4 14.12 74.336C14.0667 74.2667 13.9867 74.2213 13.88 74.2C13.7733 74.1733 13.6347 74.1547 13.464 74.144V73.84H15.856C16.576 73.84 17.136 73.968 17.536 74.224C17.936 74.48 18.136 74.84 18.136 75.304C18.136 75.656 18.024 75.944 17.8 76.168C17.5813 76.392 17.232 76.576 16.752 76.72V76.752C16.9173 76.768 17.0613 76.7867 17.184 76.808C17.3067 76.8293 17.416 76.856 17.512 76.888C17.608 76.9147 17.696 76.9493 17.776 76.992C17.8613 77.0347 17.944 77.0827 18.024 77.136C18.4987 77.472 18.736 77.8933 18.736 78.4C18.736 78.6827 18.656 78.9467 18.496 79.192C18.3413 79.432 18.1227 79.6213 17.84 79.76C17.7493 79.808 17.656 79.848 17.56 79.88C17.464 79.9067 17.352 79.9307 17.224 79.952C17.096 79.968 16.9467 79.9813 16.776 79.992C16.6107 79.9973 16.4133 80 16.184 80H13.304ZM16.208 79.656C17.1733 79.656 17.656 79.2427 17.656 78.416C17.656 77.8133 17.408 77.392 16.912 77.152C16.8267 77.1147 16.744 77.0827 16.664 77.056C16.584 77.0293 16.4907 77.0107 16.384 77C16.2773 76.984 16.1493 76.9733 16 76.968C15.856 76.9627 15.6773 76.96 15.464 76.96H15.104V78.744C15.104 79.0693 15.1893 79.304 15.36 79.448C15.5307 79.5867 15.8133 79.656 16.208 79.656ZM15.552 76.56C15.7173 76.56 15.856 76.5573 15.968 76.552C16.08 76.5467 16.176 76.5387 16.256 76.528C16.336 76.512 16.4053 76.4933 16.464 76.472C16.528 76.4453 16.592 76.4107 16.656 76.368C16.8267 76.2613 16.9467 76.1333 17.016 75.984C17.0907 75.8347 17.128 75.64 17.128 75.4C17.128 74.9787 17.024 74.6773 16.816 74.496C16.6133 74.3093 16.2933 74.216 15.856 74.216H15.24C15.1493 74.216 15.104 74.2613 15.104 74.352V76.56H15.552ZM21.4859 76.616C21.7739 76.616 22.0139 76.6 22.2059 76.568C22.4033 76.5307 22.5579 76.4747 22.6699 76.4C22.7873 76.3253 22.8699 76.2293 22.9179 76.112C22.9713 75.9947 22.9979 75.856 22.9979 75.696H23.2779V77.88H22.9979C22.9979 77.72 22.9739 77.5813 22.9259 77.464C22.8833 77.3467 22.8033 77.2507 22.6859 77.176C22.5739 77.096 22.4193 77.0373 22.2219 77C22.0299 76.9573 21.7846 76.936 21.4859 76.936V78.744C21.4859 78.92 21.5073 79.0667 21.5499 79.184C21.5926 79.296 21.6646 79.3893 21.7659 79.464C21.8726 79.5333 22.0113 79.584 22.1819 79.616C22.3526 79.6427 22.5633 79.656 22.8139 79.656C23.0966 79.656 23.3366 79.6373 23.5339 79.6C23.7313 79.5573 23.8966 79.488 24.0299 79.392C24.1633 79.296 24.2699 79.1707 24.3499 79.016C24.4299 78.856 24.4966 78.6587 24.5499 78.424H24.8539L24.7339 80H19.7659V79.696C19.9526 79.6907 20.1019 79.6747 20.2139 79.648C20.3313 79.6213 20.4219 79.576 20.4859 79.512C20.5499 79.448 20.5926 79.3573 20.6139 79.24C20.6353 79.1227 20.6459 78.9707 20.6459 78.784V75.056C20.6459 74.8693 20.6353 74.72 20.6139 74.608C20.5979 74.4907 20.5606 74.4 20.5019 74.336C20.4486 74.2667 20.3686 74.2213 20.2619 74.2C20.1553 74.1733 20.0166 74.1547 19.8459 74.144V73.84H24.4699L24.5419 75.248H24.2619C24.2299 75.0347 24.1766 74.8613 24.1019 74.728C24.0326 74.5893 23.9339 74.48 23.8059 74.4C23.6833 74.32 23.5259 74.264 23.3339 74.232C23.1419 74.2 22.9099 74.184 22.6379 74.184H21.6219C21.5313 74.184 21.4859 74.2293 21.4859 74.32V76.616ZM29.4346 77.768H27.2986C27.208 77.9867 27.1306 78.1813 27.0666 78.352C27.0026 78.5173 26.9493 78.6613 26.9066 78.784C26.8693 78.9067 26.8426 79.0107 26.8266 79.096C26.8106 79.1813 26.8026 79.2507 26.8026 79.304C26.8026 79.4533 26.8506 79.5573 26.9466 79.616C27.0426 79.6693 27.2026 79.696 27.4266 79.696V80H25.4826V79.696C25.6053 79.68 25.7093 79.6587 25.7946 79.632C25.8853 79.6053 25.9626 79.568 26.0266 79.52C26.096 79.472 26.1546 79.4107 26.2026 79.336C26.256 79.256 26.3066 79.16 26.3546 79.048L28.4346 73.84H28.7786L30.5946 78.352C30.7173 78.6507 30.824 78.8907 30.9146 79.072C31.0053 79.248 31.0933 79.3813 31.1786 79.472C31.264 79.5627 31.3546 79.6213 31.4506 79.648C31.552 79.6747 31.672 79.688 31.8106 79.688V80H29.2026V79.688C29.4853 79.688 29.68 79.6613 29.7866 79.608C29.8933 79.5547 29.9466 79.4667 29.9466 79.344C29.9466 79.2907 29.944 79.2427 29.9386 79.2C29.9333 79.152 29.9226 79.1013 29.9066 79.048C29.896 78.9947 29.8773 78.936 29.8506 78.872C29.8293 78.8027 29.8 78.7227 29.7626 78.632L29.4346 77.768ZM27.4586 77.368H29.2826L28.3946 75.008L27.4586 77.368ZM37.4938 77.52C37.4938 77.9413 37.4511 78.312 37.3658 78.632C37.2858 78.952 37.1525 79.2187 36.9658 79.432C36.7845 79.6453 36.5471 79.808 36.2538 79.92C35.9605 80.0267 35.6058 80.08 35.1898 80.08C34.7951 80.08 34.4511 80.0427 34.1578 79.968C33.8645 79.888 33.6191 79.76 33.4218 79.584C33.2245 79.4027 33.0778 79.168 32.9818 78.88C32.8858 78.592 32.8378 78.2373 32.8378 77.816V75.704C32.8378 75.3093 32.8271 75.0053 32.8058 74.792C32.7898 74.5787 32.7365 74.4213 32.6458 74.32C32.5818 74.2507 32.4938 74.2053 32.3818 74.184C32.2751 74.1573 32.1311 74.144 31.9498 74.144V73.84H34.6778V74.144C34.4965 74.144 34.3498 74.1547 34.2378 74.176C34.1258 74.1973 34.0378 74.2507 33.9738 74.336C33.8991 74.432 33.8511 74.5867 33.8298 74.8C33.8085 75.008 33.7978 75.3093 33.7978 75.704V77.88C33.7978 78.152 33.8245 78.3947 33.8778 78.608C33.9365 78.816 34.0298 78.9947 34.1578 79.144C34.2858 79.288 34.4511 79.3973 34.6538 79.472C34.8618 79.5467 35.1151 79.584 35.4138 79.584C35.9471 79.584 36.3471 79.4373 36.6138 79.144C36.8805 78.8453 37.0138 78.408 37.0138 77.832V75.904C37.0138 75.4293 36.9951 75.0693 36.9578 74.824C36.9205 74.5787 36.8511 74.4053 36.7498 74.304C36.6751 74.2347 36.5818 74.192 36.4698 74.176C36.3578 74.1547 36.2191 74.144 36.0538 74.144V73.84H38.3738V74.144C38.2031 74.144 38.0618 74.1573 37.9498 74.184C37.8431 74.2107 37.7578 74.2693 37.6938 74.36C37.6138 74.472 37.5605 74.648 37.5338 74.888C37.5071 75.1227 37.4938 75.4613 37.4938 75.904V77.52ZM45.2164 75.368H44.8884C44.8724 75.1387 44.8351 74.9467 44.7764 74.792C44.7178 74.6373 44.6324 74.5173 44.5204 74.432C44.4138 74.3413 44.2778 74.2773 44.1124 74.24C43.9471 74.2027 43.7498 74.184 43.5204 74.184C43.3231 74.184 43.1631 74.1893 43.0404 74.2C42.9231 74.2053 42.8324 74.2187 42.7684 74.24C42.7044 74.2613 42.6618 74.288 42.6404 74.32C42.6244 74.3467 42.6164 74.384 42.6164 74.432V78.712C42.6164 78.8827 42.6271 79.0293 42.6484 79.152C42.6751 79.2747 42.7231 79.376 42.7924 79.456C42.8671 79.5307 42.9711 79.5893 43.1044 79.632C43.2431 79.6693 43.4244 79.6907 43.6484 79.696V80H40.6244V79.696C40.8484 79.6907 41.0298 79.6693 41.1684 79.632C41.3071 79.5893 41.4111 79.5307 41.4804 79.456C41.5551 79.376 41.6031 79.2747 41.6244 79.152C41.6511 79.0293 41.6644 78.8827 41.6644 78.712V74.432C41.6644 74.384 41.6538 74.3467 41.6324 74.32C41.6164 74.288 41.5791 74.2613 41.5204 74.24C41.4671 74.2187 41.3898 74.2053 41.2884 74.2C41.1871 74.1893 41.0511 74.184 40.8804 74.184C40.6724 74.184 40.4778 74.192 40.2964 74.208C40.1204 74.224 39.9658 74.272 39.8324 74.352C39.7044 74.4267 39.6004 74.544 39.5204 74.704C39.4404 74.864 39.3978 75.0853 39.3924 75.368H39.0964V73.84H45.1364L45.2164 75.368ZM46.5823 74.832C46.5023 74.6933 46.4276 74.5813 46.3583 74.496C46.289 74.4053 46.217 74.3333 46.1423 74.28C46.073 74.2267 45.9983 74.192 45.9183 74.176C45.8383 74.1547 45.7423 74.144 45.6303 74.144V73.84H48.1503V74.144C47.8836 74.144 47.6943 74.1653 47.5823 74.208C47.4756 74.2453 47.4223 74.3147 47.4223 74.416C47.4223 74.528 47.4836 74.688 47.6063 74.896L48.8463 77.016H48.8783L49.7823 75.496C49.953 75.208 50.073 74.9813 50.1423 74.816C50.217 74.6507 50.2543 74.5173 50.2543 74.416C50.2543 74.3147 50.2143 74.2453 50.1343 74.208C50.0596 74.1653 49.9263 74.144 49.7343 74.144V73.84H51.5663V74.144C51.4543 74.144 51.353 74.16 51.2623 74.192C51.177 74.224 51.0863 74.288 50.9903 74.384C50.8943 74.48 50.7876 74.6133 50.6703 74.784C50.5583 74.9547 50.4196 75.1787 50.2543 75.456L49.0223 77.536V78.488C49.0223 78.7493 49.0303 78.96 49.0463 79.12C49.0676 79.2747 49.1076 79.3947 49.1663 79.48C49.2303 79.5653 49.3183 79.624 49.4303 79.656C49.5476 79.6827 49.7023 79.696 49.8943 79.696V80H47.3023V79.696C47.4943 79.696 47.6463 79.6827 47.7583 79.656C47.8756 79.624 47.9636 79.568 48.0223 79.488C48.0863 79.4027 48.129 79.2853 48.1503 79.136C48.1716 78.9867 48.1823 78.7893 48.1823 78.544V77.568L46.5823 74.832ZM59.8419 80H54.2899V79.968L58.4979 74.176H56.3059C55.9272 74.176 55.6445 74.2613 55.4579 74.432C55.2712 74.6027 55.1405 74.896 55.0659 75.312H54.7699L54.8899 73.84H59.7619V73.872L55.5939 79.632H58.0739C58.3459 79.632 58.5699 79.6133 58.7459 79.576C58.9219 79.5333 59.0632 79.456 59.1699 79.344C59.2819 79.232 59.3672 79.08 59.4259 78.888C59.4899 78.6907 59.5459 78.4347 59.5939 78.12H59.9379L59.8419 80ZM64.4221 73.76C64.8915 73.76 65.3288 73.8427 65.7341 74.008C66.1395 74.1733 66.4915 74.4 66.7901 74.688C67.0888 74.976 67.3235 75.3147 67.4941 75.704C67.6648 76.0933 67.7501 76.5147 67.7501 76.968C67.7501 77.4 67.6621 77.8053 67.4861 78.184C67.3155 78.5627 67.0808 78.8933 66.7821 79.176C66.4835 79.4533 66.1315 79.6747 65.7261 79.84C65.3208 80 64.8861 80.08 64.4221 80.08C63.9581 80.08 63.5235 80 63.1181 79.84C62.7128 79.6747 62.3608 79.4533 62.0621 79.176C61.7635 78.8933 61.5261 78.5627 61.3501 78.184C61.1795 77.8053 61.0941 77.4 61.0941 76.968C61.0941 76.5147 61.1795 76.0933 61.3501 75.704C61.5208 75.3147 61.7555 74.976 62.0541 74.688C62.3528 74.4 62.7048 74.1733 63.1101 74.008C63.5155 73.8427 63.9528 73.76 64.4221 73.76ZM64.4221 79.64C64.7741 79.64 65.0888 79.5787 65.3661 79.456C65.6488 79.3333 65.8888 79.1573 66.0861 78.928C66.2888 78.6987 66.4435 78.4213 66.5501 78.096C66.6568 77.7653 66.7101 77.3973 66.7101 76.992C66.7101 76.5653 66.6568 76.1813 66.5501 75.84C66.4435 75.4933 66.2915 75.2 66.0941 74.96C65.8968 74.7147 65.6568 74.528 65.3741 74.4C65.0915 74.2667 64.7741 74.2 64.4221 74.2C64.0701 74.2 63.7528 74.2667 63.4701 74.4C63.1875 74.528 62.9475 74.7147 62.7501 74.96C62.5528 75.2 62.4008 75.4933 62.2941 75.84C62.1875 76.1813 62.1341 76.5653 62.1341 76.992C62.1341 77.3973 62.1875 77.7653 62.2941 78.096C62.4008 78.4213 62.5528 78.6987 62.7501 78.928C62.9475 79.1573 63.1875 79.3333 63.4701 79.456C63.7528 79.5787 64.0701 79.64 64.4221 79.64ZM73.9789 80.08L70.1789 75.072H70.1469V78.488C70.1469 78.7547 70.1549 78.9653 70.1709 79.12C70.1922 79.2747 70.2295 79.3947 70.2829 79.48C70.3415 79.5653 70.4215 79.6213 70.5229 79.648C70.6295 79.6747 70.7682 79.6907 70.9389 79.696V80H68.7869V79.696C68.9735 79.6907 69.1229 79.6747 69.2349 79.648C69.3522 79.616 69.4429 79.56 69.5069 79.48C69.5709 79.4 69.6135 79.288 69.6349 79.144C69.6562 78.9947 69.6669 78.7947 69.6669 78.544V75.296C69.6669 75.072 69.6562 74.888 69.6349 74.744C69.6189 74.5947 69.5815 74.4773 69.5229 74.392C69.4695 74.3067 69.3895 74.248 69.2829 74.216C69.1762 74.1787 69.0375 74.1547 68.8669 74.144V73.84H70.4509L73.9469 78.504H73.9789V75.352C73.9789 75.0907 73.9682 74.8827 73.9469 74.728C73.9309 74.568 73.8935 74.4453 73.8349 74.36C73.7815 74.2747 73.7015 74.2187 73.5949 74.192C73.4935 74.1653 73.3575 74.1493 73.1869 74.144V73.84H75.3389V74.144C75.1522 74.1493 75.0002 74.168 74.8829 74.2C74.7709 74.2267 74.6829 74.28 74.6189 74.36C74.5549 74.44 74.5122 74.5547 74.4909 74.704C74.4695 74.8533 74.4589 75.0507 74.4589 75.296V80.08H73.9789ZM78.0456 76.616C78.3336 76.616 78.5736 76.6 78.7656 76.568C78.963 76.5307 79.1176 76.4747 79.2296 76.4C79.347 76.3253 79.4296 76.2293 79.4776 76.112C79.531 75.9947 79.5576 75.856 79.5576 75.696H79.8376V77.88H79.5576C79.5576 77.72 79.5336 77.5813 79.4856 77.464C79.443 77.3467 79.363 77.2507 79.2456 77.176C79.1336 77.096 78.979 77.0373 78.7816 77C78.5896 76.9573 78.3443 76.936 78.0456 76.936V78.744C78.0456 78.92 78.067 79.0667 78.1096 79.184C78.1523 79.296 78.2243 79.3893 78.3256 79.464C78.4323 79.5333 78.571 79.584 78.7416 79.616C78.9123 79.6427 79.123 79.656 79.3736 79.656C79.6563 79.656 79.8963 79.6373 80.0936 79.6C80.291 79.5573 80.4563 79.488 80.5896 79.392C80.723 79.296 80.8296 79.1707 80.9096 79.016C80.9896 78.856 81.0563 78.6587 81.1096 78.424H81.4136L81.2936 80H76.3256V79.696C76.5123 79.6907 76.6616 79.6747 76.7736 79.648C76.891 79.6213 76.9816 79.576 77.0456 79.512C77.1096 79.448 77.1523 79.3573 77.1736 79.24C77.195 79.1227 77.2056 78.9707 77.2056 78.784V75.056C77.2056 74.8693 77.195 74.72 77.1736 74.608C77.1576 74.4907 77.1203 74.4 77.0616 74.336C77.0083 74.2667 76.9283 74.2213 76.8216 74.2C76.715 74.1733 76.5763 74.1547 76.4056 74.144V73.84H81.0296L81.1016 75.248H80.8216C80.7896 75.0347 80.7363 74.8613 80.6616 74.728C80.5923 74.5893 80.4936 74.48 80.3656 74.4C80.243 74.32 80.0856 74.264 79.8936 74.232C79.7016 74.2 79.4696 74.184 79.1976 74.184H78.1816C78.091 74.184 78.0456 74.2293 78.0456 74.32V76.616Z" fill="#212121"/>
</g>
<defs>
<clipPath id="clip0_125_31">
<rect width="98" height="98" fill="white"/>
</clipPath>
</defs>
</svg>
