<svg width="98" height="98" viewBox="0 0 98 98" fill="none" xmlns="http://www.w3.org/2000/svg">
<g clip-path="url(#clip0_125_31)">
<path d="M23.205 49V48.216L44.275 15.435L45.304 17.199L28.105 17.983V15.19H49.028V15.974L28.007 48.706L26.978 46.942L44.52 46.109V49H23.205ZM42.707 49V46.697L48.881 40.18H49.665L49.175 49H42.707ZM24.626 23.177L23.744 14.798H24.528L31.388 15.19L30.8 16.66L25.41 23.177H24.626Z" fill="#212121"/>
<path d="M55.306 64.784C51.8107 64.784 48.7727 64.098 46.192 62.726C43.644 61.3213 41.6677 59.345 40.263 56.797C38.891 54.2163 38.205 51.1783 38.205 47.683C38.205 45.135 38.646 42.7503 39.528 40.529C40.41 38.3077 41.635 36.364 43.203 34.698C44.771 33.032 46.584 31.7417 48.642 30.827C50.7327 29.8797 52.9867 29.406 55.404 29.406C56.972 29.406 58.5563 29.553 60.157 29.847C61.7577 30.1083 63.244 30.484 64.616 30.974C66.0207 31.464 67.164 32.0357 68.046 32.689L64.567 38.226H63.783L58.295 30.925H62.95L63.195 35.188C62.1823 34.1427 61.0227 33.3913 59.716 32.934C58.4093 32.444 56.8413 32.199 55.012 32.199C52.7253 32.199 50.7 32.8197 48.936 34.061C47.2047 35.2697 45.8327 36.9683 44.82 39.157C43.84 41.313 43.35 43.812 43.35 46.654C43.35 49.6267 43.8563 52.2727 44.869 54.592C45.9143 56.8787 47.3517 58.6753 49.181 59.982C51.0103 61.256 53.1173 61.893 55.502 61.893C58.5073 61.893 60.8103 61.2887 62.411 60.08C64.0117 58.8387 64.812 57.091 64.812 54.837L66.527 55.817C66.0697 58.7897 64.91 61.0273 63.048 62.53C61.186 64.0327 58.6053 64.784 55.306 64.784ZM67.703 64.784L63.489 61.109V51.652L59.128 48.516V47.732H71.574V48.516L68.193 51.407V64.784H67.703Z" fill="#212121"/>
<path d="M15.304 79V78.696C15.512 78.6907 15.6773 78.6747 15.8 78.648C15.928 78.6213 16.024 78.576 16.088 78.512C16.1573 78.448 16.2027 78.3573 16.224 78.24C16.2507 78.1227 16.264 77.9707 16.264 77.784V74.056C16.264 73.8693 16.2533 73.72 16.232 73.608C16.216 73.4907 16.1787 73.4 16.12 73.336C16.0667 73.2667 15.9867 73.2213 15.88 73.2C15.7733 73.1733 15.6347 73.1547 15.464 73.144V72.84H17.856C18.576 72.84 19.136 72.968 19.536 73.224C19.936 73.48 20.136 73.84 20.136 74.304C20.136 74.656 20.024 74.944 19.8 75.168C19.5813 75.392 19.232 75.576 18.752 75.72V75.752C18.9173 75.768 19.0613 75.7867 19.184 75.808C19.3067 75.8293 19.416 75.856 19.512 75.888C19.608 75.9147 19.696 75.9493 19.776 75.992C19.8613 76.0347 19.944 76.0827 20.024 76.136C20.4987 76.472 20.736 76.8933 20.736 77.4C20.736 77.6827 20.656 77.9467 20.496 78.192C20.3413 78.432 20.1227 78.6213 19.84 78.76C19.7493 78.808 19.656 78.848 19.56 78.88C19.464 78.9067 19.352 78.9307 19.224 78.952C19.096 78.968 18.9467 78.9813 18.776 78.992C18.6107 78.9973 18.4133 79 18.184 79H15.304ZM18.208 78.656C19.1733 78.656 19.656 78.2427 19.656 77.416C19.656 76.8133 19.408 76.392 18.912 76.152C18.8267 76.1147 18.744 76.0827 18.664 76.056C18.584 76.0293 18.4907 76.0107 18.384 76C18.2773 75.984 18.1493 75.9733 18 75.968C17.856 75.9627 17.6773 75.96 17.464 75.96H17.104V77.744C17.104 78.0693 17.1893 78.304 17.36 78.448C17.5307 78.5867 17.8133 78.656 18.208 78.656ZM17.552 75.56C17.7173 75.56 17.856 75.5573 17.968 75.552C18.08 75.5467 18.176 75.5387 18.256 75.528C18.336 75.512 18.4053 75.4933 18.464 75.472C18.528 75.4453 18.592 75.4107 18.656 75.368C18.8267 75.2613 18.9467 75.1333 19.016 74.984C19.0907 74.8347 19.128 74.64 19.128 74.4C19.128 73.9787 19.024 73.6773 18.816 73.496C18.6133 73.3093 18.2933 73.216 17.856 73.216H17.24C17.1493 73.216 17.104 73.2613 17.104 73.352V75.56H17.552ZM23.4859 75.616C23.7739 75.616 24.0139 75.6 24.2059 75.568C24.4033 75.5307 24.5579 75.4747 24.6699 75.4C24.7873 75.3253 24.8699 75.2293 24.9179 75.112C24.9713 74.9947 24.9979 74.856 24.9979 74.696H25.2779V76.88H24.9979C24.9979 76.72 24.9739 76.5813 24.9259 76.464C24.8833 76.3467 24.8033 76.2507 24.6859 76.176C24.5739 76.096 24.4193 76.0373 24.2219 76C24.0299 75.9573 23.7846 75.936 23.4859 75.936V77.744C23.4859 77.92 23.5073 78.0667 23.5499 78.184C23.5926 78.296 23.6646 78.3893 23.7659 78.464C23.8726 78.5333 24.0113 78.584 24.1819 78.616C24.3526 78.6427 24.5633 78.656 24.8139 78.656C25.0966 78.656 25.3366 78.6373 25.5339 78.6C25.7313 78.5573 25.8966 78.488 26.0299 78.392C26.1633 78.296 26.2699 78.1707 26.3499 78.016C26.4299 77.856 26.4966 77.6587 26.5499 77.424H26.8539L26.7339 79H21.7659V78.696C21.9526 78.6907 22.1019 78.6747 22.2139 78.648C22.3313 78.6213 22.4219 78.576 22.4859 78.512C22.5499 78.448 22.5926 78.3573 22.6139 78.24C22.6353 78.1227 22.6459 77.9707 22.6459 77.784V74.056C22.6459 73.8693 22.6353 73.72 22.6139 73.608C22.5979 73.4907 22.5606 73.4 22.5019 73.336C22.4486 73.2667 22.3686 73.2213 22.2619 73.2C22.1553 73.1733 22.0166 73.1547 21.8459 73.144V72.84H26.4699L26.5419 74.248H26.2619C26.2299 74.0347 26.1766 73.8613 26.1019 73.728C26.0326 73.5893 25.9339 73.48 25.8059 73.4C25.6833 73.32 25.5259 73.264 25.3339 73.232C25.1419 73.2 24.9099 73.184 24.6379 73.184H23.6219C23.5313 73.184 23.4859 73.2293 23.4859 73.32V75.616ZM31.4346 76.768H29.2986C29.208 76.9867 29.1306 77.1813 29.0666 77.352C29.0026 77.5173 28.9493 77.6613 28.9066 77.784C28.8693 77.9067 28.8426 78.0107 28.8266 78.096C28.8106 78.1813 28.8026 78.2507 28.8026 78.304C28.8026 78.4533 28.8506 78.5573 28.9466 78.616C29.0426 78.6693 29.2026 78.696 29.4266 78.696V79H27.4826V78.696C27.6053 78.68 27.7093 78.6587 27.7946 78.632C27.8853 78.6053 27.9626 78.568 28.0266 78.52C28.096 78.472 28.1546 78.4107 28.2026 78.336C28.256 78.256 28.3066 78.16 28.3546 78.048L30.4346 72.84H30.7786L32.5946 77.352C32.7173 77.6507 32.824 77.8907 32.9146 78.072C33.0053 78.248 33.0933 78.3813 33.1786 78.472C33.264 78.5627 33.3546 78.6213 33.4506 78.648C33.552 78.6747 33.672 78.688 33.8106 78.688V79H31.2026V78.688C31.4853 78.688 31.68 78.6613 31.7866 78.608C31.8933 78.5547 31.9466 78.4667 31.9466 78.344C31.9466 78.2907 31.944 78.2427 31.9386 78.2C31.9333 78.152 31.9226 78.1013 31.9066 78.048C31.896 77.9947 31.8773 77.936 31.8506 77.872C31.8293 77.8027 31.8 77.7227 31.7626 77.632L31.4346 76.768ZM29.4586 76.368H31.2826L30.3946 74.008L29.4586 76.368ZM39.4938 76.52C39.4938 76.9413 39.4511 77.312 39.3658 77.632C39.2858 77.952 39.1525 78.2187 38.9658 78.432C38.7845 78.6453 38.5471 78.808 38.2538 78.92C37.9605 79.0267 37.6058 79.08 37.1898 79.08C36.7951 79.08 36.4511 79.0427 36.1578 78.968C35.8645 78.888 35.6191 78.76 35.4218 78.584C35.2245 78.4027 35.0778 78.168 34.9818 77.88C34.8858 77.592 34.8378 77.2373 34.8378 76.816V74.704C34.8378 74.3093 34.8271 74.0053 34.8058 73.792C34.7898 73.5787 34.7365 73.4213 34.6458 73.32C34.5818 73.2507 34.4938 73.2053 34.3818 73.184C34.2751 73.1573 34.1311 73.144 33.9498 73.144V72.84H36.6778V73.144C36.4965 73.144 36.3498 73.1547 36.2378 73.176C36.1258 73.1973 36.0378 73.2507 35.9738 73.336C35.8991 73.432 35.8511 73.5867 35.8298 73.8C35.8085 74.008 35.7978 74.3093 35.7978 74.704V76.88C35.7978 77.152 35.8245 77.3947 35.8778 77.608C35.9365 77.816 36.0298 77.9947 36.1578 78.144C36.2858 78.288 36.4511 78.3973 36.6538 78.472C36.8618 78.5467 37.1151 78.584 37.4138 78.584C37.9471 78.584 38.3471 78.4373 38.6138 78.144C38.8805 77.8453 39.0138 77.408 39.0138 76.832V74.904C39.0138 74.4293 38.9951 74.0693 38.9578 73.824C38.9205 73.5787 38.8511 73.4053 38.7498 73.304C38.6751 73.2347 38.5818 73.192 38.4698 73.176C38.3578 73.1547 38.2191 73.144 38.0538 73.144V72.84H40.3738V73.144C40.2031 73.144 40.0618 73.1573 39.9498 73.184C39.8431 73.2107 39.7578 73.2693 39.6938 73.36C39.6138 73.472 39.5605 73.648 39.5338 73.888C39.5071 74.1227 39.4938 74.4613 39.4938 74.904V76.52ZM47.2164 74.368H46.8884C46.8724 74.1387 46.8351 73.9467 46.7764 73.792C46.7178 73.6373 46.6324 73.5173 46.5204 73.432C46.4138 73.3413 46.2778 73.2773 46.1124 73.24C45.9471 73.2027 45.7498 73.184 45.5204 73.184C45.3231 73.184 45.1631 73.1893 45.0404 73.2C44.9231 73.2053 44.8324 73.2187 44.7684 73.24C44.7044 73.2613 44.6618 73.288 44.6404 73.32C44.6244 73.3467 44.6164 73.384 44.6164 73.432V77.712C44.6164 77.8827 44.6271 78.0293 44.6484 78.152C44.6751 78.2747 44.7231 78.376 44.7924 78.456C44.8671 78.5307 44.9711 78.5893 45.1044 78.632C45.2431 78.6693 45.4244 78.6907 45.6484 78.696V79H42.6244V78.696C42.8484 78.6907 43.0298 78.6693 43.1684 78.632C43.3071 78.5893 43.4111 78.5307 43.4804 78.456C43.5551 78.376 43.6031 78.2747 43.6244 78.152C43.6511 78.0293 43.6644 77.8827 43.6644 77.712V73.432C43.6644 73.384 43.6538 73.3467 43.6324 73.32C43.6164 73.288 43.5791 73.2613 43.5204 73.24C43.4671 73.2187 43.3898 73.2053 43.2884 73.2C43.1871 73.1893 43.0511 73.184 42.8804 73.184C42.6724 73.184 42.4778 73.192 42.2964 73.208C42.1204 73.224 41.9658 73.272 41.8324 73.352C41.7044 73.4267 41.6004 73.544 41.5204 73.704C41.4404 73.864 41.3978 74.0853 41.3924 74.368H41.0964V72.84H47.1364L47.2164 74.368ZM48.5823 73.832C48.5023 73.6933 48.4276 73.5813 48.3583 73.496C48.289 73.4053 48.217 73.3333 48.1423 73.28C48.073 73.2267 47.9983 73.192 47.9183 73.176C47.8383 73.1547 47.7423 73.144 47.6303 73.144V72.84H50.1503V73.144C49.8836 73.144 49.6943 73.1653 49.5823 73.208C49.4756 73.2453 49.4223 73.3147 49.4223 73.416C49.4223 73.528 49.4836 73.688 49.6063 73.896L50.8463 76.016H50.8783L51.7823 74.496C51.953 74.208 52.073 73.9813 52.1423 73.816C52.217 73.6507 52.2543 73.5173 52.2543 73.416C52.2543 73.3147 52.2143 73.2453 52.1343 73.208C52.0596 73.1653 51.9263 73.144 51.7343 73.144V72.84H53.5663V73.144C53.4543 73.144 53.353 73.16 53.2623 73.192C53.177 73.224 53.0863 73.288 52.9903 73.384C52.8943 73.48 52.7876 73.6133 52.6703 73.784C52.5583 73.9547 52.4196 74.1787 52.2543 74.456L51.0223 76.536V77.488C51.0223 77.7493 51.0303 77.96 51.0463 78.12C51.0676 78.2747 51.1076 78.3947 51.1663 78.48C51.2303 78.5653 51.3183 78.624 51.4303 78.656C51.5476 78.6827 51.7023 78.696 51.8943 78.696V79H49.3023V78.696C49.4943 78.696 49.6463 78.6827 49.7583 78.656C49.8756 78.624 49.9636 78.568 50.0223 78.488C50.0863 78.4027 50.129 78.2853 50.1503 78.136C50.1716 77.9867 50.1823 77.7893 50.1823 77.544V76.568L48.5823 73.832ZM61.8419 79H56.2899V78.968L60.4979 73.176H58.3059C57.9272 73.176 57.6445 73.2613 57.4579 73.432C57.2712 73.6027 57.1405 73.896 57.0659 74.312H56.7699L56.8899 72.84H61.7619V72.872L57.5939 78.632H60.0739C60.3459 78.632 60.5699 78.6133 60.7459 78.576C60.9219 78.5333 61.0632 78.456 61.1699 78.344C61.2819 78.232 61.3672 78.08 61.4259 77.888C61.4899 77.6907 61.5459 77.4347 61.5939 77.12H61.9379L61.8419 79ZM66.4221 72.76C66.8915 72.76 67.3288 72.8427 67.7341 73.008C68.1395 73.1733 68.4915 73.4 68.7901 73.688C69.0888 73.976 69.3235 74.3147 69.4941 74.704C69.6648 75.0933 69.7501 75.5147 69.7501 75.968C69.7501 76.4 69.6621 76.8053 69.4861 77.184C69.3155 77.5627 69.0808 77.8933 68.7821 78.176C68.4835 78.4533 68.1315 78.6747 67.7261 78.84C67.3208 79 66.8861 79.08 66.4221 79.08C65.9581 79.08 65.5235 79 65.1181 78.84C64.7128 78.6747 64.3608 78.4533 64.0621 78.176C63.7635 77.8933 63.5261 77.5627 63.3501 77.184C63.1795 76.8053 63.0941 76.4 63.0941 75.968C63.0941 75.5147 63.1795 75.0933 63.3501 74.704C63.5208 74.3147 63.7555 73.976 64.0541 73.688C64.3528 73.4 64.7048 73.1733 65.1101 73.008C65.5155 72.8427 65.9528 72.76 66.4221 72.76ZM66.4221 78.64C66.7741 78.64 67.0888 78.5787 67.3661 78.456C67.6488 78.3333 67.8888 78.1573 68.0861 77.928C68.2888 77.6987 68.4435 77.4213 68.5501 77.096C68.6568 76.7653 68.7101 76.3973 68.7101 75.992C68.7101 75.5653 68.6568 75.1813 68.5501 74.84C68.4435 74.4933 68.2915 74.2 68.0941 73.96C67.8968 73.7147 67.6568 73.528 67.3741 73.4C67.0915 73.2667 66.7741 73.2 66.4221 73.2C66.0701 73.2 65.7528 73.2667 65.4701 73.4C65.1875 73.528 64.9475 73.7147 64.7501 73.96C64.5528 74.2 64.4008 74.4933 64.2941 74.84C64.1875 75.1813 64.1341 75.5653 64.1341 75.992C64.1341 76.3973 64.1875 76.7653 64.2941 77.096C64.4008 77.4213 64.5528 77.6987 64.7501 77.928C64.9475 78.1573 65.1875 78.3333 65.4701 78.456C65.7528 78.5787 66.0701 78.64 66.4221 78.64ZM75.9789 79.08L72.1789 74.072H72.1469V77.488C72.1469 77.7547 72.1549 77.9653 72.1709 78.12C72.1922 78.2747 72.2295 78.3947 72.2829 78.48C72.3415 78.5653 72.4215 78.6213 72.5229 78.648C72.6295 78.6747 72.7682 78.6907 72.9389 78.696V79H70.7869V78.696C70.9735 78.6907 71.1229 78.6747 71.2349 78.648C71.3522 78.616 71.4429 78.56 71.5069 78.48C71.5709 78.4 71.6135 78.288 71.6349 78.144C71.6562 77.9947 71.6669 77.7947 71.6669 77.544V74.296C71.6669 74.072 71.6562 73.888 71.6349 73.744C71.6189 73.5947 71.5815 73.4773 71.5229 73.392C71.4695 73.3067 71.3895 73.248 71.2829 73.216C71.1762 73.1787 71.0375 73.1547 70.8669 73.144V72.84H72.4509L75.9469 77.504H75.9789V74.352C75.9789 74.0907 75.9682 73.8827 75.9469 73.728C75.9309 73.568 75.8935 73.4453 75.8349 73.36C75.7815 73.2747 75.7015 73.2187 75.5949 73.192C75.4935 73.1653 75.3575 73.1493 75.1869 73.144V72.84H77.3389V73.144C77.1522 73.1493 77.0002 73.168 76.8829 73.2C76.7709 73.2267 76.6829 73.28 76.6189 73.36C76.5549 73.44 76.5122 73.5547 76.4909 73.704C76.4695 73.8533 76.4589 74.0507 76.4589 74.296V79.08H75.9789ZM80.0456 75.616C80.3336 75.616 80.5736 75.6 80.7656 75.568C80.963 75.5307 81.1176 75.4747 81.2296 75.4C81.347 75.3253 81.4296 75.2293 81.4776 75.112C81.531 74.9947 81.5576 74.856 81.5576 74.696H81.8376V76.88H81.5576C81.5576 76.72 81.5336 76.5813 81.4856 76.464C81.443 76.3467 81.363 76.2507 81.2456 76.176C81.1336 76.096 80.979 76.0373 80.7816 76C80.5896 75.9573 80.3443 75.936 80.0456 75.936V77.744C80.0456 77.92 80.067 78.0667 80.1096 78.184C80.1523 78.296 80.2243 78.3893 80.3256 78.464C80.4323 78.5333 80.571 78.584 80.7416 78.616C80.9123 78.6427 81.123 78.656 81.3736 78.656C81.6563 78.656 81.8963 78.6373 82.0936 78.6C82.291 78.5573 82.4563 78.488 82.5896 78.392C82.723 78.296 82.8296 78.1707 82.9096 78.016C82.9896 77.856 83.0563 77.6587 83.1096 77.424H83.4136L83.2936 79H78.3256V78.696C78.5123 78.6907 78.6616 78.6747 78.7736 78.648C78.891 78.6213 78.9816 78.576 79.0456 78.512C79.1096 78.448 79.1523 78.3573 79.1736 78.24C79.195 78.1227 79.2056 77.9707 79.2056 77.784V74.056C79.2056 73.8693 79.195 73.72 79.1736 73.608C79.1576 73.4907 79.1203 73.4 79.0616 73.336C79.0083 73.2667 78.9283 73.2213 78.8216 73.2C78.715 73.1733 78.5763 73.1547 78.4056 73.144V72.84H83.0296L83.1016 74.248H82.8216C82.7896 74.0347 82.7363 73.8613 82.6616 73.728C82.5923 73.5893 82.4936 73.48 82.3656 73.4C82.243 73.32 82.0856 73.264 81.8936 73.232C81.7016 73.2 81.4696 73.184 81.1976 73.184H80.1816C80.091 73.184 80.0456 73.2293 80.0456 73.32V75.616Z" fill="#212121"/>
</g>
<defs>
<clipPath id="clip0_125_31">
<rect width="98" height="98" fill="white"/>
</clipPath>
</defs>
</svg>
